<?xml version="1.0" encoding="UTF-8"?>
<svg id="Layer_2" xmlns="http://www.w3.org/2000/svg" viewBox="0 0 734.15 184.91">
  <defs>
    <style>
      .cls-1 {
        fill: #e8e0cd;
      }
    </style>
  </defs>
  <g id="Layer_1-2" data-name="Layer_1">
    <g>
      <path class="cls-1" d="M351.58,139.45c-6.44,20.51-9.83,22.38-12.04,22.38-5.26,0,.51-15.09,6.1-34.92,6.1-21.7-3.22-32.89-22.21-32.89s-28.82,11.19-39.84,34.25c-12.69,26.7-22.18,30.81-32.97,31.01-10.81-.21-20.46-4.32-33.31-31.01-10.68-22.04-20.68-34.25-45.1-34.25s-35.26,12.21-45.77,34.25c-13.05,27.46-22.72,33.32-33.91,33.32v22.04c23.56,0,41.37-11.11,57.3-45.36,8.31-17.8,12.38-22.21,22.38-22.21s13.39,4.41,21.7,22.21c15.51,33.34,33.11,42.57,55.77,43.04v.02c.31,0,.62,0,.93,0,.31,0,.62,0,.93,0v-.02c22.68-.47,40.6-9.7,56.11-43.04,8.99-19.33,11.19-21.87,14.07-21.87,3.22,0,1.36,5.76-2.37,17.46-9.66,30.18-9.66,50.01,18.65,50.01,17.8,0,29.33-10.17,37.64-34.42,11.53-33.91,15.27-33.64,26.46-33.64v-22.04c-23.57,0-36.97,2.79-50.53,45.68Z"/>
      <path class="cls-1" d="M0,183.86v-89.85h68.36c5.61,0,10.64.75,15.08,2.26,4.44,1.51,8.21,3.69,11.31,6.53,3.1,2.85,5.47,6.33,7.1,10.43,1.63,4.11,2.45,8.76,2.45,13.95s-.84,9.74-2.51,13.89c-1.68,4.15-4.06,7.65-7.16,10.49-3.1,2.85-6.87,5.05-11.31,6.6-4.44,1.55-9.43,2.32-14.95,2.32H25.01v23.37H0ZM25.01,115.12v24.38h37.57c5.44,0,9.44-.92,12-2.76,2.55-1.84,3.83-5.03,3.83-9.55s-1.28-7.56-3.83-9.36c-2.56-1.8-6.56-2.7-12-2.7H25.01Z"/>
      <path class="cls-1" d="M410.34,183.74v-89.97h60.68c6.45,0,12.4,1.13,17.83,3.4,5.43,2.26,10.13,5.39,14.1,9.37,3.96,3.99,7.07,8.73,9.32,14.22,2.25,5.5,3.37,11.47,3.37,17.93s-1.12,12.44-3.37,17.93c-2.25,5.5-5.35,10.26-9.32,14.28-3.96,4.03-8.66,7.17-14.1,9.44-5.44,2.26-11.38,3.4-17.83,3.4h-60.68ZM434.73,114.91v47.69h26.48c9.4,0,16.61-2.08,21.63-6.23,5.03-4.15,7.54-10.04,7.54-17.68s-2.51-13.51-7.54-17.62c-5.03-4.11-12.24-6.17-21.63-6.17h-26.48Z"/>
      <path class="cls-1" d="M553.16,93.77h31.01l46.09,89.97h-25.99l-8.83-17.65h-53.69l-8.83,17.65h-25.99l46.21-89.97ZM550.59,148.44h36.04l-18.02-36.16-18.02,36.16Z"/>
      <path class="cls-1" d="M627.14,153.4h25.37c0,4.58,2.31,8.01,6.93,10.3,4.62,2.29,12.28,3.43,22.98,3.43,5.15,0,9.42-.18,12.81-.55,3.39-.37,6.09-.96,8.09-1.78,2-.82,3.43-1.84,4.29-3.06.86-1.23,1.29-2.7,1.29-4.41,0-2.37-.74-4.17-2.21-5.39-.74-.65-1.72-1.2-2.94-1.65-1.23-.45-2.84-.86-4.84-1.23-2-.37-4.43-.67-7.29-.92-2.86-.25-6.33-.49-10.42-.74l-4.66-.25c-8.5-.49-15.75-1.35-21.76-2.57-6.01-1.23-10.93-2.98-14.77-5.27-3.84-2.29-6.64-5.11-8.4-8.46-1.76-3.35-2.64-7.35-2.64-12.01,0-4.41,1.1-8.25,3.31-11.52,2.21-3.27,5.39-5.99,9.56-8.15,4.17-2.16,9.27-3.78,15.32-4.84,6.05-1.06,12.91-1.59,20.59-1.59,17,0,29.91,2.51,38.73,7.54,8.83,5.03,13.48,12.52,13.97,22.49h-25.25c0-4.49-2.27-7.66-6.8-9.5-4.54-1.84-11.63-2.76-21.27-2.76-4.33,0-7.97.16-10.91.49-2.94.33-5.29.84-7.05,1.53-1.76.7-3.02,1.57-3.8,2.64-.78,1.06-1.16,2.33-1.16,3.8,0,1.64.35,3,1.04,4.11.69,1.1,2,2.02,3.92,2.76,1.92.74,4.58,1.33,7.97,1.78,3.39.45,7.78.88,13.18,1.29l5.03.37c5.88.41,11.13.92,15.75,1.53,4.62.61,8.6,1.29,11.95,2.02,6.54,1.47,11.68,4.03,15.44,7.66,3.76,3.64,5.64,8.97,5.64,16,0,10.3-4.29,17.61-12.87,21.94-8.58,4.33-21.29,6.5-38.12,6.5-9.07,0-17.04-.57-23.9-1.72-6.86-1.14-12.65-2.96-17.34-5.45-4.7-2.49-8.27-5.74-10.73-9.74-2.45-4-3.8-8.87-4.05-14.59Z"/>
      <path class="cls-1" d="M0,85.2V0h111.63C118.25,0,124.35,1.07,129.92,3.22c5.57,2.15,10.39,5.11,14.46,8.88,4.06,3.77,7.25,8.26,9.55,13.47,2.3,5.2,3.46,10.86,3.46,16.98s-1.15,11.78-3.46,16.98c-2.3,5.2-5.49,9.71-9.55,13.53-4.06,3.81-8.88,6.79-14.46,8.94-5.57,2.14-11.67,3.22-18.29,3.22H0ZM25.02,20.02v45.16h76.56c9.64,0,17.03-1.97,22.19-5.9,5.15-3.93,7.73-9.51,7.73-16.74s-2.58-12.79-7.73-16.68c-5.15-3.89-12.55-5.84-22.19-5.84H25.02Z"/>
      <path class="cls-1" d="M190.49,20.97v13.35h67.23v16.44h-67.23v16.44h81.82v17.99h-106.84V0h108.31c23.56,0,41.37,8.36,57.3,40.82,8.31,16.87,12.38,22.51,22.38,22.51s13.39-5.64,21.7-22.51C391.11,8.36,409.25,0,432.81,0h16.12v20.89h-16.12c-11.19,0-21.02,3.38-34.25,29.41-10.68,20.89-20.68,34.9-45.1,34.9s-35.26-14.01-45.77-34.9c-13.05-26.04-22.72-29.41-33.91-29.41l-83.3.08Z"/>
    </g>
  </g>
</svg>